<mxfile host="app.diagrams.net" modified="2022-01-24T18:19:29.080Z" agent="5.0 (Windows NT 10.0; Win64; x64) AppleWebKit/537.36 (KHTML, like Gecko) Chrome/97.0.4692.99 Safari/537.36" etag="80BQDu13QH5Sd8UF3tdH" version="16.4.5" type="github">
  <diagram name="Page-1" id="2cc2dc42-3aac-f2a9-1cec-7a8b7cbee084">
    <mxGraphModel dx="2803" dy="1617" grid="1" gridSize="10" guides="1" tooltips="1" connect="1" arrows="1" fold="1" page="1" pageScale="1" pageWidth="1100" pageHeight="850" background="none" math="0" shadow="0">
      <root>
        <mxCell id="0" />
        <mxCell id="1" parent="0" />
        <mxCell id="yLw8xrFyhvvOSsmHmQkk-5" value="" style="endArrow=none;dashed=1;html=1;dashPattern=1 3;strokeWidth=2;rounded=0;" edge="1" parent="1">
          <mxGeometry width="50" height="50" relative="1" as="geometry">
            <mxPoint x="530" y="880" as="sourcePoint" />
            <mxPoint x="530" y="20" as="targetPoint" />
          </mxGeometry>
        </mxCell>
        <mxCell id="yLw8xrFyhvvOSsmHmQkk-6" value="" style="endArrow=none;dashed=1;html=1;dashPattern=1 3;strokeWidth=2;rounded=0;startArrow=none;" edge="1" parent="1" source="yLw8xrFyhvvOSsmHmQkk-3">
          <mxGeometry width="50" height="50" relative="1" as="geometry">
            <mxPoint x="1100" y="400" as="sourcePoint" />
            <mxPoint x="-10" y="400" as="targetPoint" />
          </mxGeometry>
        </mxCell>
        <mxCell id="yLw8xrFyhvvOSsmHmQkk-7" value="N" style="text;html=1;strokeColor=none;fillColor=none;align=center;verticalAlign=middle;whiteSpace=wrap;rounded=0;fontSize=28;fontStyle=1" vertex="1" parent="1">
          <mxGeometry x="450" y="90" width="100" height="70" as="geometry" />
        </mxCell>
        <mxCell id="yLw8xrFyhvvOSsmHmQkk-8" value="S" style="text;html=1;strokeColor=none;fillColor=none;align=center;verticalAlign=middle;whiteSpace=wrap;rounded=0;fontSize=28;fontStyle=1" vertex="1" parent="1">
          <mxGeometry x="470" y="580" width="100" height="70" as="geometry" />
        </mxCell>
        <mxCell id="yLw8xrFyhvvOSsmHmQkk-9" value="E" style="text;html=1;strokeColor=none;fillColor=none;align=center;verticalAlign=middle;whiteSpace=wrap;rounded=0;fontSize=28;fontStyle=1" vertex="1" parent="1">
          <mxGeometry x="960" y="300" width="100" height="70" as="geometry" />
        </mxCell>
        <mxCell id="yLw8xrFyhvvOSsmHmQkk-10" value="O" style="text;html=1;strokeColor=none;fillColor=none;align=center;verticalAlign=middle;whiteSpace=wrap;rounded=0;fontSize=28;fontStyle=1" vertex="1" parent="1">
          <mxGeometry x="10" y="320" width="100" height="70" as="geometry" />
        </mxCell>
        <mxCell id="yLw8xrFyhvvOSsmHmQkk-3" value="" style="triangle;whiteSpace=wrap;html=1;fontStyle=1;strokeWidth=4;fillColor=#dae8fc;strokeColor=#6c8ebf;" vertex="1" parent="1">
          <mxGeometry x="510" y="360" width="60" height="80" as="geometry" />
        </mxCell>
        <mxCell id="yLw8xrFyhvvOSsmHmQkk-11" value="" style="endArrow=none;dashed=1;html=1;dashPattern=1 3;strokeWidth=2;rounded=0;" edge="1" parent="1" target="yLw8xrFyhvvOSsmHmQkk-3">
          <mxGeometry width="50" height="50" relative="1" as="geometry">
            <mxPoint x="1099.9999999999995" y="400" as="sourcePoint" />
            <mxPoint x="-10" y="400" as="targetPoint" />
          </mxGeometry>
        </mxCell>
        <mxCell id="yLw8xrFyhvvOSsmHmQkk-15" value="" style="shape=mxgraph.mockup.containers.marginRect;rectMarginTop=10;strokeColor=#666666;strokeWidth=1;dashed=0;rounded=1;arcSize=5;recursiveResize=0;fontSize=26;fillColor=#f5f5f5;fontColor=#333333;" vertex="1" parent="1">
          <mxGeometry x="-70" width="455" height="200" as="geometry" />
        </mxCell>
        <mxCell id="yLw8xrFyhvvOSsmHmQkk-16" value="" style="shape=rect;strokeColor=none;fillColor=#008cff;strokeWidth=1;dashed=0;rounded=1;arcSize=20;fontColor=#ffffff;fontSize=17;spacing=2;spacingTop=-2;align=left;autosize=1;spacingLeft=4;resizeWidth=0;resizeHeight=0;perimeter=none;" vertex="1" parent="yLw8xrFyhvvOSsmHmQkk-15">
          <mxGeometry x="5" y="-5" width="50" height="40" as="geometry" />
        </mxCell>
        <mxCell id="yLw8xrFyhvvOSsmHmQkk-14" value="Send Command" style="strokeWidth=1;shadow=0;dashed=0;align=center;html=1;shape=mxgraph.mockup.buttons.button;strokeColor=#666666;fontColor=#ffffff;mainText=;buttonStyle=round;fontSize=17;fontStyle=1;fillColor=#008cff;whiteSpace=wrap;" vertex="1" parent="yLw8xrFyhvvOSsmHmQkk-15">
          <mxGeometry x="290" y="150" width="150" height="40" as="geometry" />
        </mxCell>
        <mxCell id="yLw8xrFyhvvOSsmHmQkk-13" value="&lt;h1 style=&quot;font-size: 26px;&quot;&gt;&lt;span style=&quot;font-size: 26px; font-weight: 400;&quot;&gt;FFLB&lt;/span&gt;&lt;/h1&gt;" style="text;html=1;strokeColor=none;fillColor=default;align=left;verticalAlign=bottom;whiteSpace=wrap;rounded=0;fontSize=26;" vertex="1" parent="yLw8xrFyhvvOSsmHmQkk-15">
          <mxGeometry x="35" y="50" width="280" height="60" as="geometry" />
        </mxCell>
      </root>
    </mxGraphModel>
  </diagram>
</mxfile>
